<?xml version="1.0" encoding="utf-8"?>
<!-- Generator: Adobe Illustrator 26.3.1, SVG Export Plug-In . SVG Version: 6.00 Build 0)  -->
<svg version="1.1" xmlns="http://www.w3.org/2000/svg" xmlns:xlink="http://www.w3.org/1999/xlink" x="0px" y="0px" width="32px"
	 height="32px" viewBox="0 0 32 32" style="enable-background:new 0 0 32 32;" xml:space="preserve">
<style type="text/css">
	.st0{fill:#49C443;}
	.st1{fill:#2181BA;}
</style>
<g id="レイヤー_1">
</g>
<g id="レイヤー_2">
</g>
<g id="レイヤー_5">
</g>
<g id="レイヤー_3">
</g>
<g id="logo-text-1">
</g>
<g id="レイヤー_6">
</g>
<g id="レイヤー_7">
</g>
<g id="logo-text">
</g>
<g id="favicon">
	<g>
		<path class="st0" d="M22.145,5.869c-0.123,0.1-0.156,0.274-0.072,0.408c0.039,0.062,0.076,0.124,0.112,0.187
			c0.139,0.244,0.382,0.418,0.661,0.418c0.417,0,0.731-0.313,0.731-0.696c0-0.314-0.209-0.522-0.278-0.661l-0.073-0.109
			c-0.107-0.16-0.329-0.187-0.473-0.059C22.553,5.531,22.351,5.702,22.145,5.869z"/>
		<path class="st1" d="M22.846,13.495c-0.244,0-0.453,0.104-0.557,0.279c-0.174,0.278-0.314,0.557-0.522,0.8
			c-1.288,1.74-3.237,2.993-5.847,2.993c-3.933,0-7.239-3.341-7.239-7.378c0-4.002,3.306-7.344,7.239-7.344
			c2.005,0,3.906,0.883,5.232,2.254c0.116,0.12,0.303,0.137,0.432,0.031c0.203-0.166,0.403-0.337,0.6-0.511
			c0.132-0.118,0.142-0.325,0.019-0.452c-1.557-1.617-3.674-2.672-6.139-2.712C11.459,1.38,7.529,4.963,7.206,9.558
			c-0.359,5.122,3.704,9.401,8.713,9.401c3.237,0,6.126-1.775,7.588-4.42c0,0,0.07-0.174,0.07-0.314
			C23.577,13.808,23.263,13.495,22.846,13.495z"/>
		<path class="st1" d="M7.596,20.135c0.262-0.325,0.703-0.372,1.027-0.11c0.19,0.153,0.287,0.365,0.259,0.566
			c-0.039,0.326-0.105,0.63-0.096,0.951c-0.089,2.163,0.642,4.362,2.674,6c3.062,2.468,7.733,1.942,10.267-1.201
			c2.512-3.116,2.034-7.792-1.028-10.261c-2.032-1.638-4.868-2.002-7.149-1.114c-0.261,0.103-0.56,0.085-0.777-0.09
			c-0.325-0.262-0.373-0.702-0.132-1c0.197-0.244,0.49-0.276,0.631-0.34c2.754-0.865,5.834-0.527,8.3,1.461
			c3.739,3.014,4.333,8.544,1.319,12.283c-3.036,3.767-8.566,4.361-12.305,1.347c-2.52-2.031-3.655-5.226-3.133-8.203
			C7.453,20.423,7.508,20.244,7.596,20.135z"/>
	</g>
</g>
</svg>
