<svg xmlns="http://www.w3.org/2000/svg" width="356" height="157" viewBox="0 0 356 157" style="enable-background:new 0 0 356 157" xml:space="preserve">
	<style>.st2{fill:#fff}</style>
	<g id="logo">
		<path class="st2" d="M80.511 24.089c-.659.535-.838 1.472-.389 2.192.207.332.408.667.602 1.006.747 1.31 2.054 2.244 3.551 2.244 2.241 0 3.924-1.68 3.924-3.738 0-1.684-1.12-2.804-1.494-3.551l-.392-.588a1.699 1.699 0 0 0-2.543-.319 105.138 105.138 0 0 1-3.259 2.754z"/>
		<path class="st2" d="M84.274 65.046c-1.31 0-2.43.56-2.991 1.497-.937 1.494-1.684 2.991-2.804 4.298-6.918 9.346-17.384 16.074-31.404 16.074-21.122 0-38.879-17.944-38.879-39.626 0-21.495 17.758-39.439 38.879-39.439 10.766 0 20.976 4.744 28.1 12.106.623.644 1.63.734 2.323.166a103.72 103.72 0 0 0 3.221-2.747c.71-.632.762-1.745.102-2.43C72.457 6.26 61.087.594 47.853.38 23.118-.019 2.012 19.227.28 43.905c-1.93 27.508 19.892 50.489 46.796 50.489 17.384 0 32.898-9.532 40.75-23.739 0 0 .373-.934.373-1.684 0-2.241-1.684-3.925-3.925-3.925z"/>
		<path class="st2" d="M2.373 100.706c1.406-1.744 3.774-1.999 5.518-.593 1.02.822 1.541 1.961 1.389 3.042-.208 1.751-.566 3.385-.514 5.106-.479 11.618 3.447 23.424 14.363 32.223 16.445 13.255 41.531 10.428 55.138-6.452 13.49-16.735 10.925-41.85-5.519-55.105-10.915-8.798-26.146-10.75-38.396-5.983-1.404.551-3.007.458-4.173-.481-1.744-1.406-2.001-3.771-.71-5.373 1.057-1.311 2.632-1.48 3.391-1.827 14.79-4.647 31.334-2.831 44.578 7.844 20.081 16.187 23.271 45.886 7.084 65.968-16.306 20.229-46.006 23.419-66.087 7.232-13.534-10.91-19.63-28.067-16.828-44.055 0 0 .295-.962.766-1.546z"/>
		<path class="st2" d="M145.708 154.691c-20.216 0-36.77-16.555-36.77-36.919 0-20.216 16.555-36.77 36.77-36.77 20.365 0 36.919 16.555 36.919 36.77 0 20.364-16.554 36.919-36.919 36.919zm0-63.331c-16.555 0-27.472 9.564-27.472 26.411 0 16.994 10.918 27.058 27.472 27.058 16.701 0 26.619-10.064 26.619-27.058 0-16.847-9.918-26.411-26.619-26.411z"/>
		<path class="st2" d="M175.125 83.042V152.2a2.573 2.573 0 0 0 2.614 2.573l2.355-.037a2.574 2.574 0 0 0 2.533-2.573V83.042a2.573 2.573 0 0 0-2.573-2.573h-2.355a2.573 2.573 0 0 0-2.574 2.573z"/><path class="st2" d="M202.957.588h2.016c1.266 0 4.072 1.153 4.072 2.576v150.885c0 1.423-2.806 2.576-4.072 2.576h-2.016c-1.266 0-4.072-1.153-4.072-2.576V3.164c0-1.423 2.806-2.576 4.072-2.576z"/><path class="st2" d="M282.682 79.276h6.586c.984 0 1.782.798 1.782 1.782v36.986c0 25.234-11.419 37.923-32.846 37.923-21.43 0-32.989-12.689-32.989-37.923V81.057c0-.984.798-1.782 1.782-1.782h6.588c.984 0 1.782.798 1.782 1.782v34.728c0 7.896 0 14.379 2.115 18.89 3.523 7.614 11.278 11.987 20.723 11.987 6.908 0 12.97-2.54 16.916-6.626 5.922-6.344 5.781-13.534 5.781-24.251V81.057a1.778 1.778 0 0 1 1.78-1.781z"/>
		<path class="st2" d="M311.115 140.435a1.706 1.706 0 0 1 2.352-.07c5.078 4.615 10.569 7.146 16.467 7.146 8.267 0 15.575-5.319 15.575-12.322 0-4.338-2.86-8.396-6.991-10.359-19.391-9.52-29.245-13.578-29.245-26.601 0-11.757 10.33-19.741 23.204-19.741 8.556 0 15.195 3.377 21.82 8.785.819.669.861 1.908.076 2.616l-4.423 3.986c-.619.558-1.556.6-2.205.077-4.727-3.812-9.562-6.224-15.903-6.224-6.994 0-12.714 4.343-12.714 9.942 0 3.778 2.702 7.979 6.517 9.942 19.388 9.937 30.194 13.72 30.194 27.16 0 11.62-10.172 21.978-25.429 21.978-8.783 0-17.707-3.316-23.765-9.375a1.727 1.727 0 0 1-.012-2.441l4.482-4.499z"/>
	</g>
</svg>
