<?xml version="1.0" encoding="utf-8"?>
<!-- Generator: Adobe Illustrator 26.3.1, SVG Export Plug-In . SVG Version: 6.00 Build 0)  -->
<svg version="1.1" id="レイヤー_1" xmlns="http://www.w3.org/2000/svg" xmlns:xlink="http://www.w3.org/1999/xlink" x="0px"
	 y="0px" width="356px" height="157px" viewBox="0 0 356 157" style="enable-background:new 0 0 356 157;" xml:space="preserve">
<style type="text/css">
	.st0{fill:#FFFFFF;}
</style>
<g id="logo-text">
	<path class="st0" d="M80.5,24.1c-0.7,0.5-0.8,1.5-0.4,2.2c0.2,0.3,0.4,0.7,0.6,1c0.7,1.3,2.1,2.2,3.6,2.2c2.2,0,3.9-1.7,3.9-3.7
		c0-1.7-1.1-2.8-1.5-3.6l-0.4-0.6c-0.5-0.8-1.6-1-2.4-0.5c-0.1,0-0.1,0.1-0.2,0.1C82.7,22.3,81.6,23.2,80.5,24.1z"/>
	<path class="st0" d="M84.3,65c-1.3,0-2.4,0.6-3,1.5c-0.9,1.5-1.7,3-2.8,4.3c-6.9,9.3-17.4,16.1-31.4,16.1C26,86.9,8.2,69,8.2,47.3
		C8.2,25.8,26,7.8,47.1,7.8c10.8,0,21,4.7,28.1,12.1c0.6,0.6,1.6,0.7,2.3,0.2c1.1-0.9,2.2-1.8,3.2-2.7c0.7-0.6,0.8-1.7,0.1-2.4
		c-8.4-8.7-19.7-14.4-33-14.6C23.1,0,2,19.2,0.3,43.9c-1.9,27.5,19.9,50.5,46.8,50.5c17.4,0,32.9-9.5,40.8-23.7c0,0,0.4-0.9,0.4-1.7
		C88.2,66.7,86.5,65,84.3,65z"/>
	<path class="st0" d="M2.4,100.7c1.4-1.7,3.8-2,5.5-0.6c1,0.8,1.5,2,1.4,3c-0.2,1.8-0.6,3.4-0.5,5.1c-0.5,11.6,3.4,23.4,14.4,32.2
		c16.4,13.3,41.5,10.4,55.1-6.5c13.5-16.7,10.9-41.8-5.5-55.1c-10.9-8.8-26.1-10.8-38.4-6c-1.4,0.6-3,0.5-4.2-0.5
		c-1.7-1.4-2-3.8-0.7-5.4c1.1-1.3,2.6-1.5,3.4-1.8c14.8-4.6,31.3-2.8,44.6,7.8c20.1,16.2,23.3,45.9,7.1,66
		c-16.3,20.2-46,23.4-66.1,7.2C4.9,135.4-1.2,118.2,1.6,102.3C1.6,102.3,1.9,101.3,2.4,100.7z"/>
	<path class="st0" d="M145.7,156.5c-20.2,0-36.8-16.6-36.8-36.9c0-20.2,16.6-36.8,36.8-36.8c20.4,0,36.9,16.6,36.9,36.8
		C182.6,140,166.1,156.5,145.7,156.5L145.7,156.5z M145.7,93.2c-16.6,0-27.5,9.6-27.5,26.4c0,17,10.9,27.1,27.5,27.1
		c16.7,0,26.6-10.1,26.6-27.1C172.3,102.8,162.4,93.2,145.7,93.2z"/>
	<path class="st0" d="M175.1,84.9v69.2c0,1.4,1.2,2.6,2.6,2.6c0,0,0,0,0,0l2.4,0c1.4,0,2.5-1.2,2.5-2.6V84.9c0-1.4-1.2-2.6-2.6-2.6
		h-2.4C176.3,82.3,175.1,83.5,175.1,84.9C175.1,84.9,175.1,84.9,175.1,84.9z"/>
	<path class="st0" d="M203.3,0.6h2.3c1.4,0,4.6,1.2,4.6,2.6V154c0,1.4-3.2,2.6-4.6,2.6h-2.3c-1.4,0-4.6-1.2-4.6-2.6V3.2
		C198.7,1.7,201.9,0.6,203.3,0.6z"/>
	<path class="st0" d="M282.7,79.9h6.6c1,0,1.8,0.8,1.8,1.8v37c0,25.2-11.4,37.9-32.8,37.9c-21.4,0-33-12.7-33-37.9v-37
		c0-1,0.8-1.8,1.8-1.8h6.6c1,0,1.8,0.8,1.8,1.8v34.7c0,7.9,0,14.4,2.1,18.9c3.5,7.6,11.3,12,20.7,12c6.9,0,13-2.5,16.9-6.6
		c5.9-6.3,5.8-13.5,5.8-24.3V81.7C280.9,80.7,281.7,79.9,282.7,79.9C282.7,79.9,282.7,79.9,282.7,79.9L282.7,79.9z"/>
	<path class="st0" d="M311.1,140.3c0.6-0.6,1.7-0.7,2.4-0.1c5.1,4.6,10.6,7.1,16.5,7.1c8.3,0,15.6-5.3,15.6-12.3
		c0-4.3-2.9-8.4-7-10.4c-19.4-9.5-29.2-13.6-29.2-26.6c0-11.8,10.3-19.7,23.2-19.7c8.6,0,15.2,3.4,21.8,8.8c0.8,0.7,0.9,1.9,0.1,2.6
		l-4.4,4c-0.6,0.6-1.6,0.6-2.2,0.1c-4.7-3.8-9.6-6.2-15.9-6.2c-7,0-12.7,4.3-12.7,9.9c0,3.8,2.7,8,6.5,9.9
		c19.4,9.9,30.2,13.7,30.2,27.2c0,11.6-10.2,22-25.4,22c-8.8,0-17.7-3.3-23.8-9.4c-0.7-0.7-0.7-1.8,0-2.4L311.1,140.3L311.1,140.3z"
		/>
</g>
</svg>
